<?xml version="1.0" encoding="UTF-8"?>
<svg xmlns="http://www.w3.org/2000/svg" width="1448" height="1086" viewBox="0 0 1448 1086" role="img" aria-label="VOLT Body Tracking logo transparent">
  <path d="M 745 189 L 728 196 L 719 207 L 712 224 L 712 252 L 687 299 L 670 311 L 654 331 L 642 355 L 636 378 L 747 567 L 784 495 L 759 458 L 807 495 L 838 514 L 844 514 L 888 476 L 951 391 L 975 383 L 997 365 L 1010 339 L 1011 317 L 1009 307 L 982 278 L 957 268 L 942 269 L 924 277 L 914 285 L 903 302 L 879 304 L 861 313 L 841 336 L 846 364 L 851 374 L 865 386 L 882 384 L 893 374 L 898 361 L 910 379 L 888 401 L 858 418 L 847 432 L 841 414 L 827 401 L 811 395 L 791 398 L 798 379 L 791 353 L 769 330 L 745 319 L 751 308 L 763 313 L 774 311 L 786 286 L 794 282 L 793 261 L 797 255 L 797 238 L 815 223 L 768 195 Z
    M 494 328 L 693 640 L 662 661 L 597 695 L 647 680 L 701 656 L 719 681 L 775 613 L 816 585 L 865 544 L 914 495 L 971 429 L 798 569 L 809 522 L 752 604 L 747 607 L 582 330 Z
    M 580 763 L 580 788 L 581 789 L 581 792 L 582 793 L 583 798 L 586 803 L 589 806 L 589 807 L 597 814 L 611 820 L 622 821 L 623 822 L 692 822 L 693 821 L 700 821 L 701 820 L 704 820 L 705 819 L 711 818 L 723 812 L 737 799 L 737 798 L 742 792 L 745 786 L 745 784 L 747 780 L 747 776 L 748 775 L 748 770 L 749 769 L 749 757 L 748 756 L 748 750 L 747 749 L 746 743 L 740 733 L 733 726 L 730 725 L 728 723 L 726 723 L 720 720 L 712 719 L 711 718 L 630 718 L 629 719 L 625 719 L 624 720 L 621 720 L 620 721 L 612 723 L 602 729 L 593 737 L 586 747 L 584 751 L 584 753 L 582 756 L 581 762 Z
    M 346 719 L 419 822 L 453 822 L 531 720 L 531 719 L 495 719 L 480 740 L 467 756 L 465 760 L 442 789 L 440 793 L 438 795 L 436 795 L 382 719 Z
    M 813 719 L 813 820 L 942 820 L 942 793 L 845 793 L 844 792 L 844 719 L 843 718 L 842 719 L 840 718 L 839 719 Z
    M 982 719 L 982 743 L 1037 743 L 1038 744 L 1038 820 L 1067 820 L 1067 744 L 1068 743 L 1125 743 L 1125 719 Z
    M 609 769 L 610 768 L 610 765 L 611 764 L 611 763 L 612 762 L 612 761 L 613 760 L 614 757 L 622 749 L 623 749 L 628 746 L 630 746 L 631 745 L 633 745 L 634 744 L 639 744 L 640 743 L 694 743 L 695 744 L 700 744 L 701 745 L 703 745 L 704 746 L 706 746 L 707 747 L 710 748 L 716 754 L 716 755 L 718 758 L 718 760 L 719 761 L 719 771 L 718 772 L 718 775 L 717 776 L 717 777 L 716 778 L 715 781 L 708 788 L 707 788 L 705 790 L 704 790 L 701 792 L 699 792 L 698 793 L 695 793 L 694 794 L 627 794 L 626 793 L 623 793 L 622 792 L 619 791 L 617 789 L 616 789 L 613 786 L 613 785 L 611 783 L 611 781 L 610 780 L 610 777 L 609 776 Z
    M 972 208 L 966 208 L 965 209 L 953 209 L 952 210 L 944 210 L 943 211 L 928 212 L 927 213 L 916 214 L 915 215 L 911 215 L 910 216 L 901 217 L 900 218 L 897 218 L 896 219 L 892 219 L 891 220 L 888 220 L 887 221 L 880 222 L 876 224 L 869 225 L 865 227 L 862 227 L 861 228 L 859 228 L 858 229 L 856 229 L 855 230 L 853 230 L 852 231 L 850 231 L 849 232 L 847 232 L 846 233 L 844 233 L 843 234 L 841 234 L 840 235 L 838 235 L 837 236 L 829 238 L 826 240 L 821 241 L 818 243 L 813 244 L 810 246 L 808 246 L 802 249 L 802 255 L 801 256 L 801 261 L 800 262 L 800 272 L 799 274 L 815 266 L 817 266 L 821 263 L 825 262 L 842 253 L 844 253 L 860 245 L 862 245 L 867 242 L 869 242 L 872 240 L 874 240 L 879 237 L 884 236 L 892 232 L 897 231 L 900 229 L 902 229 L 903 228 L 905 228 L 906 227 L 908 227 L 909 226 L 911 226 L 912 225 L 914 225 L 915 224 L 917 224 L 918 223 L 920 223 L 921 222 L 923 222 L 924 221 L 926 221 L 930 219 L 933 219 L 934 218 L 940 217 L 944 215 L 947 215 L 951 213 L 954 213 L 955 212 L 958 212 L 959 211 L 962 211 L 963 210 L 966 210 L 967 209 L 971 209 Z
    M 679 279 L 678 280 L 677 280 L 676 281 L 675 281 L 674 282 L 673 282 L 672 283 L 669 284 L 667 286 L 666 286 L 665 287 L 664 287 L 663 288 L 662 288 L 661 289 L 660 289 L 659 290 L 658 290 L 657 291 L 656 291 L 655 292 L 654 292 L 653 293 L 652 293 L 651 294 L 650 294 L 649 295 L 648 295 L 647 296 L 644 297 L 642 299 L 641 299 L 640 300 L 639 300 L 638 301 L 635 302 L 633 304 L 632 304 L 631 305 L 630 305 L 628 307 L 627 307 L 626 308 L 623 309 L 621 311 L 618 312 L 616 314 L 615 314 L 613 316 L 610 317 L 608 319 L 607 319 L 605 321 L 604 321 L 603 322 L 603 323 L 604 324 L 605 327 L 607 329 L 608 332 L 610 334 L 611 337 L 613 339 L 613 340 L 614 341 L 615 344 L 617 346 L 618 349 L 620 351 L 620 352 L 622 355 L 624 353 L 624 352 L 626 350 L 626 349 L 628 347 L 628 346 L 630 344 L 630 343 L 632 341 L 632 340 L 635 337 L 635 336 L 637 334 L 637 333 L 639 331 L 639 330 L 645 323 L 645 322 L 647 320 L 647 319 L 650 316 L 650 315 L 653 312 L 653 311 L 657 307 L 657 306 L 660 303 L 660 302 L 663 299 L 663 298 L 668 293 L 668 292 L 673 287 L 673 286 L 679 280 Z
    M 1041 869 L 1041 877 L 1042 878 L 1141 878 L 1141 868 L 1127 868 L 1126 869 L 1122 869 L 1121 868 L 1042 868 Z
    M 347 868 L 347 878 L 447 878 L 447 869 L 446 868 L 433 868 L 432 869 L 427 869 L 426 868 L 415 868 L 414 869 L 406 869 L 405 868 L 387 868 L 386 869 L 375 869 L 374 868 L 355 868 L 354 869 L 349 869 L 348 868 Z
    M 539 858 L 538 859 L 536 859 L 535 860 L 534 860 L 529 865 L 529 866 L 527 869 L 527 872 L 526 873 L 527 874 L 527 879 L 528 880 L 528 882 L 530 884 L 530 885 L 533 888 L 534 888 L 537 890 L 539 890 L 540 891 L 546 891 L 547 890 L 549 890 L 550 889 L 553 888 L 558 883 L 558 882 L 559 881 L 559 878 L 560 877 L 560 871 L 559 870 L 559 868 L 558 867 L 557 864 L 554 861 L 553 861 L 551 859 L 549 859 L 548 858 Z
    M 578 858 L 577 859 L 578 860 L 578 861 L 577 862 L 577 867 L 578 868 L 578 870 L 577 871 L 577 889 L 578 890 L 595 890 L 596 889 L 598 889 L 599 888 L 600 888 L 604 884 L 604 883 L 606 881 L 606 878 L 607 877 L 607 872 L 606 871 L 606 868 L 605 867 L 604 864 L 601 861 L 600 861 L 597 859 L 594 859 L 593 858 Z
    M 483 858 L 483 890 L 503 890 L 504 889 L 506 889 L 509 886 L 509 885 L 510 884 L 510 877 L 508 875 L 508 871 L 509 870 L 509 865 L 508 864 L 508 862 L 505 859 L 503 859 L 502 858 Z
    M 739 858 L 739 890 L 746 890 L 746 882 L 747 881 L 751 881 L 754 884 L 754 885 L 758 890 L 766 890 L 765 887 L 763 885 L 763 884 L 761 882 L 761 881 L 760 880 L 760 879 L 764 875 L 764 873 L 765 872 L 765 866 L 764 865 L 763 862 L 761 860 L 760 860 L 757 858 Z
    M 940 858 L 939 859 L 939 889 L 940 890 L 947 890 L 947 876 L 948 875 L 949 875 L 950 876 L 950 877 L 953 880 L 953 881 L 955 883 L 955 884 L 957 886 L 957 887 L 959 889 L 959 890 L 966 890 L 967 889 L 967 883 L 966 882 L 966 868 L 967 867 L 967 859 L 966 858 L 960 858 L 959 859 L 959 872 L 958 873 L 957 873 L 956 872 L 956 871 L 954 869 L 954 868 L 951 865 L 951 864 L 949 862 L 949 861 L 946 858 Z
    M 991 860 L 986 865 L 986 866 L 985 867 L 985 869 L 984 870 L 984 879 L 985 880 L 986 883 L 991 888 L 992 888 L 994 890 L 997 890 L 998 891 L 1002 891 L 1003 890 L 1006 890 L 1007 889 L 1008 889 L 1009 890 L 1015 890 L 1015 872 L 1010 872 L 1009 871 L 1006 871 L 1005 872 L 1001 872 L 1001 878 L 1006 878 L 1007 879 L 1007 880 L 1005 882 L 1004 882 L 1003 883 L 997 883 L 995 881 L 994 881 L 993 880 L 993 879 L 992 878 L 992 876 L 991 875 L 991 873 L 992 872 L 992 870 L 996 866 L 997 866 L 998 865 L 1003 865 L 1004 866 L 1005 866 L 1007 868 L 1008 868 L 1013 863 L 1010 860 L 1009 860 L 1006 858 L 995 858 L 994 859 Z
    M 795 858 L 795 859 L 793 862 L 793 864 L 791 867 L 791 869 L 789 872 L 789 874 L 788 875 L 788 877 L 786 880 L 786 882 L 784 885 L 784 887 L 783 888 L 783 890 L 790 890 L 791 889 L 791 887 L 793 885 L 803 885 L 806 888 L 806 889 L 807 890 L 814 890 L 814 889 L 813 888 L 813 886 L 811 883 L 811 881 L 810 880 L 810 878 L 808 875 L 808 873 L 806 870 L 806 868 L 804 865 L 804 863 L 803 862 L 802 859 L 801 858 Z
    M 873 858 L 872 859 L 872 870 L 873 871 L 873 888 L 872 889 L 873 890 L 880 890 L 880 883 L 881 882 L 882 882 L 890 890 L 899 890 L 899 889 L 891 881 L 891 880 L 886 875 L 886 873 L 891 868 L 891 867 L 895 863 L 895 862 L 898 859 L 898 858 L 890 858 L 884 864 L 884 865 L 882 867 L 881 867 L 880 866 L 880 859 L 879 858 Z
    M 836 859 L 835 860 L 834 860 L 830 864 L 830 865 L 828 867 L 828 870 L 827 871 L 827 878 L 828 879 L 828 881 L 829 882 L 829 883 L 834 888 L 835 888 L 838 890 L 841 890 L 842 891 L 846 891 L 847 890 L 850 890 L 851 889 L 852 889 L 854 887 L 855 887 L 856 886 L 856 885 L 851 880 L 849 882 L 848 882 L 847 883 L 841 883 L 840 882 L 839 882 L 835 878 L 835 876 L 834 875 L 834 874 L 835 873 L 835 871 L 836 870 L 836 869 L 839 866 L 840 866 L 841 865 L 846 865 L 851 868 L 856 863 L 853 860 L 852 860 L 851 859 L 849 859 L 848 858 L 839 858 L 838 859 Z
    M 620 858 L 621 861 L 623 863 L 623 864 L 625 866 L 626 869 L 628 871 L 628 872 L 630 874 L 630 875 L 631 876 L 631 890 L 639 890 L 639 876 L 640 875 L 640 874 L 642 872 L 643 869 L 647 864 L 647 863 L 648 862 L 648 861 L 650 859 L 650 858 L 642 858 L 640 860 L 640 861 L 638 863 L 638 864 L 635 867 L 634 867 L 633 866 L 633 865 L 631 863 L 630 860 L 628 858 Z
    M 693 858 L 693 865 L 695 865 L 696 866 L 702 866 L 703 867 L 703 890 L 710 890 L 710 867 L 712 865 L 720 865 L 720 858 Z
    M 541 865 L 546 865 L 547 866 L 548 866 L 552 870 L 552 873 L 553 874 L 553 875 L 552 876 L 552 878 L 548 882 L 547 882 L 546 883 L 540 883 L 539 882 L 538 882 L 535 879 L 535 878 L 534 877 L 534 871 L 535 870 L 535 869 L 537 867 L 538 867 Z
    M 914 858 L 913 859 L 913 890 L 920 890 L 921 889 L 921 876 L 920 875 L 920 873 L 921 872 L 921 859 L 920 858 Z
    M 586 865 L 592 865 L 593 866 L 596 867 L 598 869 L 598 870 L 599 871 L 599 877 L 598 878 L 598 879 L 596 881 L 595 881 L 592 883 L 586 883 L 585 882 L 585 866 Z
    M 746 866 L 747 865 L 755 865 L 758 868 L 758 871 L 756 873 L 747 873 L 746 872 Z
    M 490 878 L 491 877 L 500 877 L 503 880 L 503 881 L 501 883 L 491 883 L 490 882 Z
    M 490 866 L 491 865 L 500 865 L 502 867 L 502 869 L 501 870 L 491 870 L 490 869 Z
    M 798 871 L 799 871 L 800 872 L 800 874 L 801 875 L 801 877 L 800 878 L 797 878 L 796 877 L 796 875 L 797 874 L 797 872 Z" fill="#FFD600" fill-rule="evenodd"/>
</svg>
